M48
; DRILL file {KiCad (5.1.12-1-10_14)} date Sunday, 09 January 2022 at 11:34:08
; FORMAT={-:-/ absolute / inch / decimal}
; #@! TF.CreationDate,2022-01-09T11:34:08+01:00
; #@! TF.GenerationSoftware,Kicad,Pcbnew,(5.1.12-1-10_14)
; #@! TF.FileFunction,Plated,1,2,PTH
FMAT,2
INCH
T1C0.0157
T2C0.0315
T3C0.0354
T4C0.0394
T5C0.0409
%
G90
G05
T1
X4.16Y-2.83
X4.28Y-2.74
X4.94Y-2.93
X5.08Y-4.44
X5.29Y-3.75
X5.29Y-4.42
X5.33Y-3.08
X5.38Y-4.43
X5.48Y-2.67
X5.64Y-2.75
X5.77Y-2.92
X5.93Y-2.99
X5.95Y-3.22
X6.1Y-4.43
X6.28Y-3.34
X6.55Y-4.26
X6.64Y-4.01
X6.69Y-4.47
X6.71Y-2.25
X6.72Y-2.99
X6.7398Y-4.5698
X6.74Y-4.61
X7.11Y-3.28
X7.19Y-3.45
X7.61Y-2.88
X7.63Y-3.25
T2
X4.4094Y-3.2677
X4.4094Y-3.5433
X4.4094Y-5.1969
X4.8094Y-3.2677
X4.8094Y-3.5433
X4.8094Y-5.1969
X6.6866Y-4.7244
X6.811Y-3.5433
X6.811Y-4.1732
X6.9488Y-3.5433
X6.9488Y-4.1732
X7.0866Y-4.7244
T3
X4.3409Y-2.8307
X4.4409Y-2.8307
X4.5409Y-2.8307
X4.6409Y-2.8307
X4.7409Y-2.8307
X4.8409Y-2.8307
X4.9409Y-2.8307
X5.0409Y-2.8307
X5.4079Y-2.8307
X5.5079Y-2.8307
X5.6079Y-2.8307
X5.7079Y-2.8307
X5.8079Y-2.8307
X5.9079Y-2.8307
X6.0079Y-2.8307
X6.1079Y-2.8307
T4
X3.9764Y-2.2835
X3.9764Y-2.3835
X3.9764Y-2.4835
X3.9764Y-2.6559
X3.9764Y-2.7559
X3.9764Y-2.9315
X3.9764Y-3.0315
X3.9764Y-3.222
X3.9764Y-3.322
X3.9764Y-3.422
X3.9764Y-3.522
X3.9764Y-3.622
X3.9764Y-3.7945
X3.9764Y-3.8945
X3.9764Y-3.9945
X3.9764Y-4.0945
X3.9764Y-4.2764
X3.9764Y-4.3764
X3.9764Y-4.4764
X3.9764Y-4.5764
X3.9764Y-4.6764
X3.9764Y-4.7764
X3.9764Y-4.8764
X3.9764Y-4.9764
X3.9764Y-5.0764
X3.9764Y-5.1764
X4.2488Y-5.5118
X4.3488Y-5.5118
X4.4488Y-5.5118
X4.6457Y-5.5118
X4.7457Y-5.5118
X4.8457Y-5.5118
X5.0378Y-5.5118
X5.1378Y-5.5118
X5.2378Y-5.5118
X6.1598Y-5.5118
X6.2598Y-5.5118
X6.4354Y-5.5118
X6.4654Y-1.9685
X6.5354Y-5.5118
X6.5654Y-1.9685
X6.6654Y-1.9685
X6.7126Y-5.5118
X6.7654Y-1.9685
X6.8126Y-5.5118
X6.8654Y-1.9685
X6.9126Y-5.5118
X6.9654Y-1.9685
X7.0126Y-5.5118
X7.0654Y-1.9685
X7.1126Y-5.5118
X7.1654Y-1.9685
X7.2126Y-5.5118
X7.5197Y-2.3228
X7.5197Y-2.4228
X7.5197Y-2.5228
X7.5197Y-2.6228
X7.5197Y-2.7953
X7.5197Y-2.8953
X7.5197Y-2.9953
X7.5197Y-3.0953
X7.5197Y-3.2677
X7.5197Y-3.3677
X7.5197Y-3.4677
X7.5197Y-3.5677
X7.5197Y-3.7402
X7.5197Y-3.8402
X7.5197Y-3.9402
X7.5197Y-4.0402
X7.5197Y-4.2126
X7.5197Y-4.3126
X7.5197Y-4.4126
X7.5197Y-4.5126
X7.5197Y-4.685
X7.5197Y-4.785
X7.5197Y-4.885
X7.5197Y-5.0787
X7.5197Y-5.1787
T5
X5.2087Y-3.5134
X5.2087Y-3.6134
X5.2087Y-3.7134
X5.2087Y-3.8134
X5.2087Y-3.9134
X5.2087Y-4.0134
X5.2087Y-4.1134
X5.2087Y-4.2134
X5.2087Y-4.3134
X5.2087Y-4.4134
X5.2087Y-4.5134
X5.2087Y-4.6134
X5.2087Y-4.7134
X5.2087Y-4.8134
X5.2087Y-4.9134
X5.2087Y-5.0134
X5.2087Y-5.1134
X5.2087Y-5.2134
X5.2087Y-5.3134
X6.2087Y-3.5134
X6.2087Y-3.6134
X6.2087Y-3.7134
X6.2087Y-3.8134
X6.2087Y-3.9134
X6.2087Y-4.0134
X6.2087Y-4.1134
X6.2087Y-4.2134
X6.2087Y-4.3134
X6.2087Y-4.4134
X6.2087Y-4.5134
X6.2087Y-4.6134
X6.2087Y-4.7134
X6.2087Y-4.8134
X6.2087Y-4.9134
X6.2087Y-5.0134
X6.2087Y-5.1134
X6.2087Y-5.2134
X6.2087Y-5.3134
T0
M30
