%TF.GenerationSoftware,KiCad,Pcbnew,(5.1.12-1-10_14)*%
%TF.CreationDate,2022-01-09T11:34:05+01:00*%
%TF.ProjectId,mainPCB,6d61696e-5043-4422-9e6b-696361645f70,rev?*%
%TF.SameCoordinates,Original*%
%TF.FileFunction,Soldermask,Top*%
%TF.FilePolarity,Negative*%
%FSLAX46Y46*%
G04 Gerber Fmt 4.6, Leading zero omitted, Abs format (unit mm)*
G04 Created by KiCad (PCBNEW (5.1.12-1-10_14)) date 2022-01-09 11:34:05*
%MOMM*%
%LPD*%
G01*
G04 APERTURE LIST*
%ADD10C,1.700000*%
%ADD11C,3.300000*%
%ADD12O,1.700000X1.700000*%
%ADD13C,1.900000*%
%ADD14O,1.800000X1.800000*%
%ADD15C,1.660000*%
G04 APERTURE END LIST*
D10*
%TO.C,C_5V_relais1*%
X176500000Y-90000000D03*
G36*
G01*
X172150000Y-90800000D02*
X172150000Y-89200000D01*
G75*
G02*
X172200000Y-89150000I50000J0D01*
G01*
X173800000Y-89150000D01*
G75*
G02*
X173850000Y-89200000I0J-50000D01*
G01*
X173850000Y-90800000D01*
G75*
G02*
X173800000Y-90850000I-50000J0D01*
G01*
X172200000Y-90850000D01*
G75*
G02*
X172150000Y-90800000I0J50000D01*
G01*
G37*
%TD*%
D11*
%TO.C,M3*%
X191000000Y-50000000D03*
%TD*%
%TO.C,M3*%
X191000000Y-140000000D03*
%TD*%
%TO.C,M3*%
X101000000Y-140000000D03*
%TD*%
%TO.C,M3*%
X101000000Y-50000000D03*
%TD*%
D12*
%TO.C,R_5V_ind1*%
X122160000Y-83000000D03*
D10*
X112000000Y-83000000D03*
%TD*%
D12*
%TO.C,R_3V3_ind1*%
X122160000Y-132000000D03*
D10*
X112000000Y-132000000D03*
%TD*%
D13*
%TO.C,MAX2*%
X137360000Y-71900000D03*
X139900000Y-71900000D03*
X142440000Y-71900000D03*
X144980000Y-71900000D03*
X155140000Y-71900000D03*
X152600000Y-71900000D03*
X150060000Y-71900000D03*
X147520000Y-71900000D03*
%TD*%
%TO.C,MAX1*%
X110260000Y-71900000D03*
X112800000Y-71900000D03*
X115340000Y-71900000D03*
X117880000Y-71900000D03*
X128040000Y-71900000D03*
X125500000Y-71900000D03*
X122960000Y-71900000D03*
X120420000Y-71900000D03*
%TD*%
D14*
%TO.C,H_GND1*%
X191000000Y-78620000D03*
X191000000Y-76080000D03*
X191000000Y-73540000D03*
G36*
G01*
X190100000Y-71850000D02*
X190100000Y-70150000D01*
G75*
G02*
X190150000Y-70100000I50000J0D01*
G01*
X191850000Y-70100000D01*
G75*
G02*
X191900000Y-70150000I0J-50000D01*
G01*
X191900000Y-71850000D01*
G75*
G02*
X191850000Y-71900000I-50000J0D01*
G01*
X190150000Y-71900000D01*
G75*
G02*
X190100000Y-71850000I0J50000D01*
G01*
G37*
%TD*%
%TO.C,H_5V_IN1*%
X156460000Y-140000000D03*
G36*
G01*
X158150000Y-139100000D02*
X159850000Y-139100000D01*
G75*
G02*
X159900000Y-139150000I0J-50000D01*
G01*
X159900000Y-140850000D01*
G75*
G02*
X159850000Y-140900000I-50000J0D01*
G01*
X158150000Y-140900000D01*
G75*
G02*
X158100000Y-140850000I0J50000D01*
G01*
X158100000Y-139150000D01*
G75*
G02*
X158150000Y-139100000I50000J0D01*
G01*
G37*
%TD*%
%TO.C,H_5V1*%
X191000000Y-90620000D03*
X191000000Y-88080000D03*
X191000000Y-85540000D03*
G36*
G01*
X190100000Y-83850000D02*
X190100000Y-82150000D01*
G75*
G02*
X190150000Y-82100000I50000J0D01*
G01*
X191850000Y-82100000D01*
G75*
G02*
X191900000Y-82150000I0J-50000D01*
G01*
X191900000Y-83850000D01*
G75*
G02*
X191850000Y-83900000I-50000J0D01*
G01*
X190150000Y-83900000D01*
G75*
G02*
X190100000Y-83850000I0J50000D01*
G01*
G37*
%TD*%
%TO.C,H_LED_3V3*%
X166000000Y-140000000D03*
G36*
G01*
X164310000Y-140900000D02*
X162610000Y-140900000D01*
G75*
G02*
X162560000Y-140850000I0J50000D01*
G01*
X162560000Y-139150000D01*
G75*
G02*
X162610000Y-139100000I50000J0D01*
G01*
X164310000Y-139100000D01*
G75*
G02*
X164360000Y-139150000I0J-50000D01*
G01*
X164360000Y-140850000D01*
G75*
G02*
X164310000Y-140900000I-50000J0D01*
G01*
G37*
%TD*%
%TO.C,H_LED_5V1*%
X101000000Y-67460000D03*
G36*
G01*
X101900000Y-69150000D02*
X101900000Y-70850000D01*
G75*
G02*
X101850000Y-70900000I-50000J0D01*
G01*
X100150000Y-70900000D01*
G75*
G02*
X100100000Y-70850000I0J50000D01*
G01*
X100100000Y-69150000D01*
G75*
G02*
X100150000Y-69100000I50000J0D01*
G01*
X101850000Y-69100000D01*
G75*
G02*
X101900000Y-69150000I0J-50000D01*
G01*
G37*
%TD*%
%TO.C,H_3V3*%
X191000000Y-66620000D03*
X191000000Y-64080000D03*
X191000000Y-61540000D03*
G36*
G01*
X190100000Y-59850000D02*
X190100000Y-58150000D01*
G75*
G02*
X190150000Y-58100000I50000J0D01*
G01*
X191850000Y-58100000D01*
G75*
G02*
X191900000Y-58150000I0J-50000D01*
G01*
X191900000Y-59850000D01*
G75*
G02*
X191850000Y-59900000I-50000J0D01*
G01*
X190150000Y-59900000D01*
G75*
G02*
X190100000Y-59850000I0J50000D01*
G01*
G37*
%TD*%
%TO.C,H13_BLANK1*%
X183200000Y-140000000D03*
X180660000Y-140000000D03*
X178120000Y-140000000D03*
X175580000Y-140000000D03*
X173040000Y-140000000D03*
G36*
G01*
X171350000Y-140900000D02*
X169650000Y-140900000D01*
G75*
G02*
X169600000Y-140850000I0J50000D01*
G01*
X169600000Y-139150000D01*
G75*
G02*
X169650000Y-139100000I50000J0D01*
G01*
X171350000Y-139100000D01*
G75*
G02*
X171400000Y-139150000I0J-50000D01*
G01*
X171400000Y-140850000D01*
G75*
G02*
X171350000Y-140900000I-50000J0D01*
G01*
G37*
%TD*%
%TO.C,H12_SD1*%
X164220000Y-50000000D03*
X166760000Y-50000000D03*
X169300000Y-50000000D03*
X171840000Y-50000000D03*
X174380000Y-50000000D03*
X176920000Y-50000000D03*
X179460000Y-50000000D03*
G36*
G01*
X181150000Y-49100000D02*
X182850000Y-49100000D01*
G75*
G02*
X182900000Y-49150000I0J-50000D01*
G01*
X182900000Y-50850000D01*
G75*
G02*
X182850000Y-50900000I-50000J0D01*
G01*
X181150000Y-50900000D01*
G75*
G02*
X181100000Y-50850000I0J50000D01*
G01*
X181100000Y-49150000D01*
G75*
G02*
X181150000Y-49100000I50000J0D01*
G01*
G37*
%TD*%
%TO.C,H11_ANATEMP1*%
X191000000Y-102620000D03*
X191000000Y-100080000D03*
X191000000Y-97540000D03*
G36*
G01*
X190100000Y-95850000D02*
X190100000Y-94150000D01*
G75*
G02*
X190150000Y-94100000I50000J0D01*
G01*
X191850000Y-94100000D01*
G75*
G02*
X191900000Y-94150000I0J-50000D01*
G01*
X191900000Y-95850000D01*
G75*
G02*
X191850000Y-95900000I-50000J0D01*
G01*
X190150000Y-95900000D01*
G75*
G02*
X190100000Y-95850000I0J50000D01*
G01*
G37*
%TD*%
%TO.C,H10_PUMP1*%
X113000000Y-140000000D03*
X110460000Y-140000000D03*
G36*
G01*
X108770000Y-140900000D02*
X107070000Y-140900000D01*
G75*
G02*
X107020000Y-140850000I0J50000D01*
G01*
X107020000Y-139150000D01*
G75*
G02*
X107070000Y-139100000I50000J0D01*
G01*
X108770000Y-139100000D01*
G75*
G02*
X108820000Y-139150000I0J-50000D01*
G01*
X108820000Y-140850000D01*
G75*
G02*
X108770000Y-140900000I-50000J0D01*
G01*
G37*
%TD*%
%TO.C,H9_WATER1*%
X133040000Y-140000000D03*
X130500000Y-140000000D03*
G36*
G01*
X128810000Y-140900000D02*
X127110000Y-140900000D01*
G75*
G02*
X127060000Y-140850000I0J50000D01*
G01*
X127060000Y-139150000D01*
G75*
G02*
X127110000Y-139100000I50000J0D01*
G01*
X128810000Y-139100000D01*
G75*
G02*
X128860000Y-139150000I0J-50000D01*
G01*
X128860000Y-140850000D01*
G75*
G02*
X128810000Y-140900000I-50000J0D01*
G01*
G37*
%TD*%
%TO.C,H8_ROTA1*%
X101000000Y-81840000D03*
X101000000Y-84380000D03*
X101000000Y-86920000D03*
X101000000Y-89460000D03*
G36*
G01*
X101900000Y-91150000D02*
X101900000Y-92850000D01*
G75*
G02*
X101850000Y-92900000I-50000J0D01*
G01*
X100150000Y-92900000D01*
G75*
G02*
X100100000Y-92850000I0J50000D01*
G01*
X100100000Y-91150000D01*
G75*
G02*
X100150000Y-91100000I50000J0D01*
G01*
X101850000Y-91100000D01*
G75*
G02*
X101900000Y-91150000I0J-50000D01*
G01*
G37*
%TD*%
%TO.C,H7_SCALE1*%
X101000000Y-63080000D03*
X101000000Y-60540000D03*
G36*
G01*
X100100000Y-58850000D02*
X100100000Y-57150000D01*
G75*
G02*
X100150000Y-57100000I50000J0D01*
G01*
X101850000Y-57100000D01*
G75*
G02*
X101900000Y-57150000I0J-50000D01*
G01*
X101900000Y-58850000D01*
G75*
G02*
X101850000Y-58900000I-50000J0D01*
G01*
X100150000Y-58900000D01*
G75*
G02*
X100100000Y-58850000I0J50000D01*
G01*
G37*
%TD*%
%TO.C,H6_DISP1*%
X101000000Y-108620000D03*
X101000000Y-111160000D03*
X101000000Y-113700000D03*
X101000000Y-116240000D03*
X101000000Y-118780000D03*
X101000000Y-121320000D03*
X101000000Y-123860000D03*
X101000000Y-126400000D03*
X101000000Y-128940000D03*
G36*
G01*
X101900000Y-130630000D02*
X101900000Y-132330000D01*
G75*
G02*
X101850000Y-132380000I-50000J0D01*
G01*
X100150000Y-132380000D01*
G75*
G02*
X100100000Y-132330000I0J50000D01*
G01*
X100100000Y-130630000D01*
G75*
G02*
X100150000Y-130580000I50000J0D01*
G01*
X101850000Y-130580000D01*
G75*
G02*
X101900000Y-130630000I0J-50000D01*
G01*
G37*
%TD*%
%TO.C,H5_RGBLED1*%
X101000000Y-96380000D03*
X101000000Y-98920000D03*
X101000000Y-101460000D03*
G36*
G01*
X101900000Y-103150000D02*
X101900000Y-104850000D01*
G75*
G02*
X101850000Y-104900000I-50000J0D01*
G01*
X100150000Y-104900000D01*
G75*
G02*
X100100000Y-104850000I0J50000D01*
G01*
X100100000Y-103150000D01*
G75*
G02*
X100150000Y-103100000I50000J0D01*
G01*
X101850000Y-103100000D01*
G75*
G02*
X101900000Y-103150000I0J-50000D01*
G01*
G37*
%TD*%
%TO.C,H4_DHT22*%
X191000000Y-124080000D03*
X191000000Y-121540000D03*
G36*
G01*
X190100000Y-119850000D02*
X190100000Y-118150000D01*
G75*
G02*
X190150000Y-118100000I50000J0D01*
G01*
X191850000Y-118100000D01*
G75*
G02*
X191900000Y-118150000I0J-50000D01*
G01*
X191900000Y-119850000D01*
G75*
G02*
X191850000Y-119900000I-50000J0D01*
G01*
X190150000Y-119900000D01*
G75*
G02*
X190100000Y-119850000I0J50000D01*
G01*
G37*
%TD*%
%TO.C,H3_PUMPREL1*%
X123080000Y-140000000D03*
X120540000Y-140000000D03*
G36*
G01*
X118850000Y-140900000D02*
X117150000Y-140900000D01*
G75*
G02*
X117100000Y-140850000I0J50000D01*
G01*
X117100000Y-139150000D01*
G75*
G02*
X117150000Y-139100000I50000J0D01*
G01*
X118850000Y-139100000D01*
G75*
G02*
X118900000Y-139150000I0J-50000D01*
G01*
X118900000Y-140850000D01*
G75*
G02*
X118850000Y-140900000I-50000J0D01*
G01*
G37*
%TD*%
%TO.C,H2_UART1*%
X191000000Y-114620000D03*
X191000000Y-112080000D03*
X191000000Y-109540000D03*
G36*
G01*
X190100000Y-107850000D02*
X190100000Y-106150000D01*
G75*
G02*
X190150000Y-106100000I50000J0D01*
G01*
X191850000Y-106100000D01*
G75*
G02*
X191900000Y-106150000I0J-50000D01*
G01*
X191900000Y-107850000D01*
G75*
G02*
X191850000Y-107900000I-50000J0D01*
G01*
X190150000Y-107900000D01*
G75*
G02*
X190100000Y-107850000I0J50000D01*
G01*
G37*
%TD*%
%TO.C,H1_5V_IN1*%
X101000000Y-74460000D03*
G36*
G01*
X101900000Y-76150000D02*
X101900000Y-77850000D01*
G75*
G02*
X101850000Y-77900000I-50000J0D01*
G01*
X100150000Y-77900000D01*
G75*
G02*
X100100000Y-77850000I0J50000D01*
G01*
X100100000Y-76150000D01*
G75*
G02*
X100150000Y-76100000I50000J0D01*
G01*
X101850000Y-76100000D01*
G75*
G02*
X101900000Y-76150000I0J-50000D01*
G01*
G37*
%TD*%
D12*
%TO.C,EN_R1*%
X112000000Y-90000000D03*
D10*
X122160000Y-90000000D03*
%TD*%
D14*
%TO.C,H_ENABLE1*%
X191000000Y-131540000D03*
G36*
G01*
X190100000Y-129850000D02*
X190100000Y-128150000D01*
G75*
G02*
X190150000Y-128100000I50000J0D01*
G01*
X191850000Y-128100000D01*
G75*
G02*
X191900000Y-128150000I0J-50000D01*
G01*
X191900000Y-129850000D01*
G75*
G02*
X191850000Y-129900000I-50000J0D01*
G01*
X190150000Y-129900000D01*
G75*
G02*
X190100000Y-129850000I0J50000D01*
G01*
G37*
%TD*%
D12*
%TO.C,DHT22_R1*%
X169840000Y-120000000D03*
D10*
X180000000Y-120000000D03*
%TD*%
%TO.C,C1*%
X176500000Y-106000000D03*
G36*
G01*
X172150000Y-106800000D02*
X172150000Y-105200000D01*
G75*
G02*
X172200000Y-105150000I50000J0D01*
G01*
X173800000Y-105150000D01*
G75*
G02*
X173850000Y-105200000I0J-50000D01*
G01*
X173850000Y-106800000D01*
G75*
G02*
X173800000Y-106850000I-50000J0D01*
G01*
X172200000Y-106850000D01*
G75*
G02*
X172150000Y-106800000I0J50000D01*
G01*
G37*
%TD*%
D15*
%TO.C,U1*%
X157700000Y-134960000D03*
X157700000Y-132420000D03*
X157700000Y-129880000D03*
X157700000Y-127340000D03*
X157700000Y-124800000D03*
X157700000Y-122260000D03*
X157700000Y-119720000D03*
X157700000Y-117180000D03*
X157700000Y-114640000D03*
X157700000Y-112100000D03*
X157700000Y-109560000D03*
X157700000Y-107020000D03*
X157700000Y-104480000D03*
X157700000Y-101940000D03*
X157700000Y-99400000D03*
X157700000Y-96860000D03*
X157700000Y-94320000D03*
X157700000Y-91780000D03*
X157700000Y-89240000D03*
X132300000Y-132420000D03*
X132300000Y-129880000D03*
X132300000Y-127340000D03*
X132300000Y-124800000D03*
X132300000Y-122260000D03*
X132300000Y-119720000D03*
X132300000Y-117180000D03*
X132300000Y-114640000D03*
X132300000Y-112100000D03*
X132300000Y-109560000D03*
X132300000Y-107020000D03*
X132300000Y-104480000D03*
X132300000Y-101940000D03*
X132300000Y-99400000D03*
X132300000Y-96860000D03*
X132300000Y-94320000D03*
X132300000Y-134960000D03*
X132300000Y-91780000D03*
G36*
G01*
X131470000Y-90020000D02*
X131470000Y-88460000D01*
G75*
G02*
X131520000Y-88410000I50000J0D01*
G01*
X133080000Y-88410000D01*
G75*
G02*
X133130000Y-88460000I0J-50000D01*
G01*
X133130000Y-90020000D01*
G75*
G02*
X133080000Y-90070000I-50000J0D01*
G01*
X131520000Y-90070000D01*
G75*
G02*
X131470000Y-90020000I0J50000D01*
G01*
G37*
%TD*%
M02*
