%TF.GenerationSoftware,KiCad,Pcbnew,(5.1.12-1-10_14)*%
%TF.CreationDate,2022-01-09T11:34:05+01:00*%
%TF.ProjectId,mainPCB,6d61696e-5043-4422-9e6b-696361645f70,rev?*%
%TF.SameCoordinates,Original*%
%TF.FileFunction,Copper,L1,Top*%
%TF.FilePolarity,Positive*%
%FSLAX46Y46*%
G04 Gerber Fmt 4.6, Leading zero omitted, Abs format (unit mm)*
G04 Created by KiCad (PCBNEW (5.1.12-1-10_14)) date 2022-01-09 11:34:05*
%MOMM*%
%LPD*%
G01*
G04 APERTURE LIST*
%TA.AperFunction,ComponentPad*%
%ADD10C,1.600000*%
%TD*%
%TA.AperFunction,ComponentPad*%
%ADD11R,1.600000X1.600000*%
%TD*%
%TA.AperFunction,ComponentPad*%
%ADD12O,1.600000X1.600000*%
%TD*%
%TA.AperFunction,ComponentPad*%
%ADD13C,1.800000*%
%TD*%
%TA.AperFunction,ComponentPad*%
%ADD14O,1.700000X1.700000*%
%TD*%
%TA.AperFunction,ComponentPad*%
%ADD15R,1.700000X1.700000*%
%TD*%
%TA.AperFunction,ComponentPad*%
%ADD16C,1.560000*%
%TD*%
%TA.AperFunction,ComponentPad*%
%ADD17R,1.560000X1.560000*%
%TD*%
%TA.AperFunction,ViaPad*%
%ADD18C,0.800000*%
%TD*%
%TA.AperFunction,Conductor*%
%ADD19C,0.250000*%
%TD*%
%TA.AperFunction,Conductor*%
%ADD20C,1.000000*%
%TD*%
G04 APERTURE END LIST*
D10*
%TO.P,C_5V_relais1,2*%
%TO.N,GND*%
X176500000Y-90000000D03*
D11*
%TO.P,C_5V_relais1,1*%
%TO.N,+5V*%
X173000000Y-90000000D03*
%TD*%
D12*
%TO.P,R_5V_ind1,2*%
%TO.N,Net-(H_LED_5V1-Pad1)*%
X122160000Y-83000000D03*
D10*
%TO.P,R_5V_ind1,1*%
%TO.N,+5V*%
X112000000Y-83000000D03*
%TD*%
D12*
%TO.P,R_3V3_ind1,2*%
%TO.N,Net-(H_LED_3V3-Pad1)*%
X122160000Y-132000000D03*
D10*
%TO.P,R_3V3_ind1,1*%
%TO.N,+3V3*%
X112000000Y-132000000D03*
%TD*%
D13*
%TO.P,MAX2,8*%
%TO.N,Net-(MAX2-Pad8)*%
X137360000Y-71900000D03*
%TO.P,MAX2,7*%
%TO.N,GND*%
X139900000Y-71900000D03*
%TO.P,MAX2,6*%
%TO.N,+3V3*%
X142440000Y-71900000D03*
%TO.P,MAX2,5*%
%TO.N,/SPI_CLK*%
X144980000Y-71900000D03*
%TO.P,MAX2,1*%
%TO.N,Net-(MAX2-Pad1)*%
X155140000Y-71900000D03*
%TO.P,MAX2,2*%
%TO.N,/SPI_CS_TEMP2*%
X152600000Y-71900000D03*
%TO.P,MAX2,3*%
%TO.N,/SPI_MOSI*%
X150060000Y-71900000D03*
%TO.P,MAX2,4*%
%TO.N,/SPI_MISO*%
X147520000Y-71900000D03*
%TD*%
%TO.P,MAX1,8*%
%TO.N,Net-(MAX1-Pad8)*%
X110260000Y-71900000D03*
%TO.P,MAX1,7*%
%TO.N,GND*%
X112800000Y-71900000D03*
%TO.P,MAX1,6*%
%TO.N,+3V3*%
X115340000Y-71900000D03*
%TO.P,MAX1,5*%
%TO.N,/SPI_CLK*%
X117880000Y-71900000D03*
%TO.P,MAX1,1*%
%TO.N,Net-(MAX1-Pad1)*%
X128040000Y-71900000D03*
%TO.P,MAX1,2*%
%TO.N,/SPI_CS_TEMP1*%
X125500000Y-71900000D03*
%TO.P,MAX1,3*%
%TO.N,/SPI_MOSI*%
X122960000Y-71900000D03*
%TO.P,MAX1,4*%
%TO.N,/SPI_MISO*%
X120420000Y-71900000D03*
%TD*%
D14*
%TO.P,H_GND1,4*%
%TO.N,GND*%
X191000000Y-78620000D03*
%TO.P,H_GND1,3*%
X191000000Y-76080000D03*
%TO.P,H_GND1,2*%
X191000000Y-73540000D03*
D15*
%TO.P,H_GND1,1*%
X191000000Y-71000000D03*
%TD*%
D14*
%TO.P,H_5V_IN1,2*%
%TO.N,/V_IN*%
X156460000Y-140000000D03*
D15*
%TO.P,H_5V_IN1,1*%
%TO.N,+5V*%
X159000000Y-140000000D03*
%TD*%
D14*
%TO.P,H_5V1,4*%
%TO.N,+3V3*%
X191000000Y-90620000D03*
%TO.P,H_5V1,3*%
X191000000Y-88080000D03*
%TO.P,H_5V1,2*%
X191000000Y-85540000D03*
D15*
%TO.P,H_5V1,1*%
X191000000Y-83000000D03*
%TD*%
D14*
%TO.P,H_LED_3V3,2*%
%TO.N,GND*%
X166000000Y-140000000D03*
D15*
%TO.P,H_LED_3V3,1*%
%TO.N,Net-(H_LED_3V3-Pad1)*%
X163460000Y-140000000D03*
%TD*%
D14*
%TO.P,H_LED_5V1,2*%
%TO.N,GND*%
X101000000Y-67460000D03*
D15*
%TO.P,H_LED_5V1,1*%
%TO.N,Net-(H_LED_5V1-Pad1)*%
X101000000Y-70000000D03*
%TD*%
D14*
%TO.P,H_3V3,4*%
%TO.N,+5V*%
X191000000Y-66620000D03*
%TO.P,H_3V3,3*%
X191000000Y-64080000D03*
%TO.P,H_3V3,2*%
X191000000Y-61540000D03*
D15*
%TO.P,H_3V3,1*%
X191000000Y-59000000D03*
%TD*%
D14*
%TO.P,H13_BLANK1,6*%
%TO.N,GND*%
X183200000Y-140000000D03*
%TO.P,H13_BLANK1,5*%
%TO.N,/ROTARY_SW_BLANK4*%
X180660000Y-140000000D03*
%TO.P,H13_BLANK1,4*%
%TO.N,/SCALE_DT_BLANK3*%
X178120000Y-140000000D03*
%TO.P,H13_BLANK1,3*%
%TO.N,/LED_RED_BLANK2*%
X175580000Y-140000000D03*
%TO.P,H13_BLANK1,2*%
%TO.N,/SPI_CS_SD_BLANK1*%
X173040000Y-140000000D03*
D15*
%TO.P,H13_BLANK1,1*%
%TO.N,+3V3*%
X170500000Y-140000000D03*
%TD*%
D14*
%TO.P,H12_SD1,8*%
%TO.N,GND*%
X164220000Y-50000000D03*
%TO.P,H12_SD1,7*%
%TO.N,/SPI_MISO*%
X166760000Y-50000000D03*
%TO.P,H12_SD1,6*%
%TO.N,/SPI_DC*%
X169300000Y-50000000D03*
%TO.P,H12_SD1,5*%
%TO.N,/SPI_CLK*%
X171840000Y-50000000D03*
%TO.P,H12_SD1,4*%
%TO.N,/SPI_MOSI*%
X174380000Y-50000000D03*
%TO.P,H12_SD1,3*%
%TO.N,/SPI_CS_SD_BLANK1*%
X176920000Y-50000000D03*
%TO.P,H12_SD1,2*%
%TO.N,/SPI_RES*%
X179460000Y-50000000D03*
D15*
%TO.P,H12_SD1,1*%
%TO.N,+3V3*%
X182000000Y-50000000D03*
%TD*%
D14*
%TO.P,H11_ANATEMP1,4*%
%TO.N,GND*%
X191000000Y-102620000D03*
%TO.P,H11_ANATEMP1,3*%
%TO.N,/ROTARY_SW_ANALOG_T2*%
X191000000Y-100080000D03*
%TO.P,H11_ANATEMP1,2*%
%TO.N,/SCALE_DT_ANALOG_T1*%
X191000000Y-97540000D03*
D15*
%TO.P,H11_ANATEMP1,1*%
%TO.N,+3V3*%
X191000000Y-95000000D03*
%TD*%
D14*
%TO.P,H10_PUMP1,3*%
%TO.N,GND*%
X113000000Y-140000000D03*
%TO.P,H10_PUMP1,2*%
%TO.N,/PUMP_IN*%
X110460000Y-140000000D03*
D15*
%TO.P,H10_PUMP1,1*%
%TO.N,+3V3*%
X107920000Y-140000000D03*
%TD*%
D14*
%TO.P,H9_WATER1,3*%
%TO.N,GND*%
X133040000Y-140000000D03*
%TO.P,H9_WATER1,2*%
%TO.N,/WATER_IN*%
X130500000Y-140000000D03*
D15*
%TO.P,H9_WATER1,1*%
%TO.N,+3V3*%
X127960000Y-140000000D03*
%TD*%
D14*
%TO.P,H8_ROTA1,5*%
%TO.N,GND*%
X101000000Y-81840000D03*
%TO.P,H8_ROTA1,4*%
%TO.N,/ROTARY_SW_ANALOG_T2*%
X101000000Y-84380000D03*
%TO.P,H8_ROTA1,3*%
%TO.N,/ROTARY_DT_LED_BLUE*%
X101000000Y-86920000D03*
%TO.P,H8_ROTA1,2*%
%TO.N,/ROTARY_CLK_PUMP_RELAIS*%
X101000000Y-89460000D03*
D15*
%TO.P,H8_ROTA1,1*%
%TO.N,+3V3*%
X101000000Y-92000000D03*
%TD*%
D14*
%TO.P,H7_SCALE1,3*%
%TO.N,GND*%
X101000000Y-63080000D03*
%TO.P,H7_SCALE1,2*%
%TO.N,/SCALE_DT_ANALOG_T1*%
X101000000Y-60540000D03*
D15*
%TO.P,H7_SCALE1,1*%
%TO.N,+3V3*%
X101000000Y-58000000D03*
%TD*%
D14*
%TO.P,H6_DISP1,10*%
%TO.N,GND*%
X101000000Y-108620000D03*
%TO.P,H6_DISP1,9*%
%TO.N,/TLC_CLK*%
X101000000Y-111160000D03*
%TO.P,H6_DISP1,8*%
%TO.N,/TLC_DATA*%
X101000000Y-113700000D03*
%TO.P,H6_DISP1,7*%
%TO.N,/PHOTO_IN*%
X101000000Y-116240000D03*
%TO.P,H6_DISP1,6*%
%TO.N,/SPI_DC*%
X101000000Y-118780000D03*
%TO.P,H6_DISP1,5*%
%TO.N,/SPI_CLK*%
X101000000Y-121320000D03*
%TO.P,H6_DISP1,4*%
%TO.N,/SPI_MOSI*%
X101000000Y-123860000D03*
%TO.P,H6_DISP1,3*%
%TO.N,/SPI_CS_OLED*%
X101000000Y-126400000D03*
%TO.P,H6_DISP1,2*%
%TO.N,/SPI_RES*%
X101000000Y-128940000D03*
D15*
%TO.P,H6_DISP1,1*%
%TO.N,+3V3*%
X101000000Y-131480000D03*
%TD*%
D14*
%TO.P,H5_RGBLED1,4*%
%TO.N,GND*%
X101000000Y-96380000D03*
%TO.P,H5_RGBLED1,3*%
%TO.N,/ROTARY_DT_LED_BLUE*%
X101000000Y-98920000D03*
%TO.P,H5_RGBLED1,2*%
%TO.N,/LED_GREEN*%
X101000000Y-101460000D03*
D15*
%TO.P,H5_RGBLED1,1*%
%TO.N,/LED_RED_BLANK2*%
X101000000Y-104000000D03*
%TD*%
D14*
%TO.P,H4_DHT22,3*%
%TO.N,GND*%
X191000000Y-124080000D03*
%TO.P,H4_DHT22,2*%
%TO.N,/DHT22*%
X191000000Y-121540000D03*
D15*
%TO.P,H4_DHT22,1*%
%TO.N,+3V3*%
X191000000Y-119000000D03*
%TD*%
D14*
%TO.P,H3_PUMPREL1,3*%
%TO.N,GND*%
X123080000Y-140000000D03*
%TO.P,H3_PUMPREL1,2*%
%TO.N,/ROTARY_CLK_PUMP_RELAIS*%
X120540000Y-140000000D03*
D15*
%TO.P,H3_PUMPREL1,1*%
%TO.N,+5V*%
X118000000Y-140000000D03*
%TD*%
D14*
%TO.P,H2_UART1,4*%
%TO.N,GND*%
X191000000Y-114620000D03*
%TO.P,H2_UART1,3*%
%TO.N,/UART2_RX*%
X191000000Y-112080000D03*
%TO.P,H2_UART1,2*%
%TO.N,/UART2_TX*%
X191000000Y-109540000D03*
D15*
%TO.P,H2_UART1,1*%
%TO.N,+5V*%
X191000000Y-107000000D03*
%TD*%
D14*
%TO.P,H1_5V_IN1,2*%
%TO.N,GND*%
X101000000Y-74460000D03*
D15*
%TO.P,H1_5V_IN1,1*%
%TO.N,+5V*%
X101000000Y-77000000D03*
%TD*%
D12*
%TO.P,EN_R1,2*%
%TO.N,/EN*%
X112000000Y-90000000D03*
D10*
%TO.P,EN_R1,1*%
%TO.N,+3V3*%
X122160000Y-90000000D03*
%TD*%
D14*
%TO.P,H_ENABLE1,2*%
%TO.N,/EN*%
X191000000Y-131540000D03*
D15*
%TO.P,H_ENABLE1,1*%
%TO.N,GND*%
X191000000Y-129000000D03*
%TD*%
D12*
%TO.P,DHT22_R1,2*%
%TO.N,/DHT22*%
X169840000Y-120000000D03*
D10*
%TO.P,DHT22_R1,1*%
%TO.N,+3V3*%
X180000000Y-120000000D03*
%TD*%
%TO.P,C1,2*%
%TO.N,GND*%
X176500000Y-106000000D03*
D11*
%TO.P,C1,1*%
%TO.N,/EN*%
X173000000Y-106000000D03*
%TD*%
D16*
%TO.P,U1,38*%
%TO.N,Net-(U1-Pad38)*%
X157700000Y-134960000D03*
%TO.P,U1,37*%
%TO.N,Net-(U1-Pad37)*%
X157700000Y-132420000D03*
%TO.P,U1,36*%
%TO.N,Net-(U1-Pad36)*%
X157700000Y-129880000D03*
%TO.P,U1,35*%
%TO.N,/LED_GREEN*%
X157700000Y-127340000D03*
%TO.P,U1,34*%
%TO.N,/SPI_RES*%
X157700000Y-124800000D03*
%TO.P,U1,33*%
%TO.N,Net-(U1-Pad33)*%
X157700000Y-122260000D03*
%TO.P,U1,32*%
%TO.N,/DHT22*%
X157700000Y-119720000D03*
%TO.P,U1,31*%
%TO.N,/UART2_RX*%
X157700000Y-117180000D03*
%TO.P,U1,30*%
%TO.N,/UART2_TX*%
X157700000Y-114640000D03*
%TO.P,U1,29*%
%TO.N,/SPI_CS_SD_BLANK1*%
X157700000Y-112100000D03*
%TO.P,U1,28*%
%TO.N,/SPI_CLK*%
X157700000Y-109560000D03*
%TO.P,U1,27*%
%TO.N,/SPI_MISO*%
X157700000Y-107020000D03*
%TO.P,U1,26*%
%TO.N,Net-(U1-Pad26)*%
X157700000Y-104480000D03*
%TO.P,U1,25*%
%TO.N,/SPI_CS_TEMP1*%
X157700000Y-101940000D03*
%TO.P,U1,24*%
%TO.N,Net-(U1-Pad24)*%
X157700000Y-99400000D03*
%TO.P,U1,23*%
%TO.N,Net-(U1-Pad23)*%
X157700000Y-96860000D03*
%TO.P,U1,22*%
%TO.N,/SPI_CS_TEMP2*%
X157700000Y-94320000D03*
%TO.P,U1,21*%
%TO.N,/SPI_MOSI*%
X157700000Y-91780000D03*
%TO.P,U1,20*%
%TO.N,GND*%
X157700000Y-89240000D03*
%TO.P,U1,18*%
%TO.N,Net-(U1-Pad18)*%
X132300000Y-132420000D03*
%TO.P,U1,17*%
%TO.N,Net-(U1-Pad17)*%
X132300000Y-129880000D03*
%TO.P,U1,16*%
%TO.N,Net-(U1-Pad16)*%
X132300000Y-127340000D03*
%TO.P,U1,15*%
%TO.N,/SPI_CS_OLED*%
X132300000Y-124800000D03*
%TO.P,U1,14*%
%TO.N,Net-(U1-Pad14)*%
X132300000Y-122260000D03*
%TO.P,U1,13*%
%TO.N,/SPI_DC*%
X132300000Y-119720000D03*
%TO.P,U1,12*%
%TO.N,/LED_RED_BLANK2*%
X132300000Y-117180000D03*
%TO.P,U1,11*%
%TO.N,/TLC_CLK*%
X132300000Y-114640000D03*
%TO.P,U1,10*%
%TO.N,/TLC_DATA*%
X132300000Y-112100000D03*
%TO.P,U1,9*%
%TO.N,/ROTARY_DT_LED_BLUE*%
X132300000Y-109560000D03*
%TO.P,U1,8*%
%TO.N,/SCALE_DT_ANALOG_T1*%
X132300000Y-107020000D03*
%TO.P,U1,7*%
%TO.N,/ROTARY_CLK_PUMP_RELAIS*%
X132300000Y-104480000D03*
%TO.P,U1,6*%
%TO.N,/PUMP_IN*%
X132300000Y-101940000D03*
%TO.P,U1,5*%
%TO.N,/ROTARY_SW_ANALOG_T2*%
X132300000Y-99400000D03*
%TO.P,U1,4*%
%TO.N,/WATER_IN*%
X132300000Y-96860000D03*
%TO.P,U1,3*%
%TO.N,/PHOTO_IN*%
X132300000Y-94320000D03*
%TO.P,U1,19*%
%TO.N,/V_IN*%
X132300000Y-134960000D03*
%TO.P,U1,2*%
%TO.N,/EN*%
X132300000Y-91780000D03*
D17*
%TO.P,U1,1*%
%TO.N,+3V3*%
X132300000Y-89240000D03*
%TD*%
D18*
%TO.N,GND*%
X139192000Y-67818000D03*
%TO.N,+3V3*%
X108712000Y-69596000D03*
X105664000Y-71882000D03*
%TO.N,+5V*%
X193802000Y-82550000D03*
X193294000Y-73152000D03*
%TO.N,/UART2_RX*%
X171196000Y-117094000D03*
%TO.N,/UART2_TX*%
X171191347Y-116073347D03*
%TO.N,/LED_GREEN*%
X136652000Y-112522000D03*
%TO.N,/LED_RED_BLANK2*%
X129032000Y-112776000D03*
%TO.N,/PHOTO_IN*%
X134366000Y-112268000D03*
%TO.N,/SPI_CLK*%
X151130000Y-81788000D03*
X154940000Y-112522000D03*
%TO.N,/SPI_MOSI*%
X125476000Y-74422000D03*
X170434000Y-57150000D03*
X168656000Y-101854000D03*
%TO.N,/SCALE_DT_ANALOG_T1*%
X135382000Y-78232000D03*
X182626000Y-87630000D03*
X180594000Y-83312000D03*
X170688000Y-75946000D03*
X150622000Y-75946000D03*
%TO.N,/ROTARY_SW_ANALOG_T2*%
X166370000Y-108204000D03*
X134366000Y-95250000D03*
%TO.N,/SPI_MISO*%
X143256000Y-69850000D03*
X146558000Y-74168000D03*
X159512000Y-84836000D03*
%TO.N,/SPI_CS_SD_BLANK1*%
X169926000Y-113538000D03*
%TD*%
D19*
%TO.N,GND*%
X112800000Y-71900000D02*
X116882000Y-67818000D01*
X116882000Y-67818000D02*
X139192000Y-67818000D01*
%TO.N,/EN*%
X173000000Y-114665002D02*
X172974000Y-114691002D01*
X173000000Y-106000000D02*
X173000000Y-114665002D01*
X172974000Y-114691002D02*
X172974000Y-127254000D01*
X177260000Y-131540000D02*
X191000000Y-131540000D01*
X172974000Y-127254000D02*
X177260000Y-131540000D01*
X113780000Y-91780000D02*
X132300000Y-91780000D01*
X112000000Y-90000000D02*
X113780000Y-91780000D01*
%TO.N,/DHT22*%
X157980000Y-120000000D02*
X157700000Y-119720000D01*
X169840000Y-120000000D02*
X157980000Y-120000000D01*
%TO.N,+3V3*%
X112000000Y-135920000D02*
X107920000Y-140000000D01*
X112000000Y-132000000D02*
X112000000Y-135920000D01*
X101520000Y-132000000D02*
X101000000Y-131480000D01*
X112000000Y-132000000D02*
X101520000Y-132000000D01*
X114114999Y-73125001D02*
X115340000Y-71900000D01*
X109305999Y-73125001D02*
X114114999Y-73125001D01*
X99824999Y-59175001D02*
X99824999Y-63644001D01*
X101000000Y-58000000D02*
X99824999Y-59175001D01*
X141214999Y-73125001D02*
X142440000Y-71900000D01*
X116565001Y-73125001D02*
X141214999Y-73125001D01*
X115340000Y-71900000D02*
X116565001Y-73125001D01*
D20*
X191000000Y-83000000D02*
X191000000Y-90620000D01*
X195274990Y-78725010D02*
X195274990Y-50300308D01*
X191000000Y-83000000D02*
X195274990Y-78725010D01*
X195274990Y-47954990D02*
X193045010Y-45725010D01*
X195274990Y-50300308D02*
X195274990Y-47954990D01*
X112014000Y-69596000D02*
X108712000Y-69596000D01*
X135884990Y-45725010D02*
X112014000Y-69596000D01*
X105664000Y-71882000D02*
X111506000Y-77724000D01*
X120784000Y-77724000D02*
X132300000Y-89240000D01*
X111506000Y-77724000D02*
X120784000Y-77724000D01*
D19*
X181000000Y-119000000D02*
X180000000Y-120000000D01*
X191000000Y-119000000D02*
X181000000Y-119000000D01*
X191000000Y-95000000D02*
X191000000Y-90620000D01*
X131540000Y-90000000D02*
X132300000Y-89240000D01*
X122160000Y-90000000D02*
X131540000Y-90000000D01*
X123880000Y-135920000D02*
X112000000Y-135920000D01*
X127960000Y-140000000D02*
X123880000Y-135920000D01*
X182410000Y-50000000D02*
X186684990Y-45725010D01*
X182000000Y-50000000D02*
X182410000Y-50000000D01*
D20*
X186684990Y-45725010D02*
X135884990Y-45725010D01*
X193045010Y-45725010D02*
X186684990Y-45725010D01*
D19*
X107950000Y-69596000D02*
X106863499Y-70682501D01*
X108712000Y-69596000D02*
X107950000Y-69596000D01*
X106863499Y-70682501D02*
X109305999Y-73125001D01*
X99824999Y-63644001D02*
X106863499Y-70682501D01*
X192625011Y-96625011D02*
X191000000Y-95000000D01*
X192625011Y-117374989D02*
X192625011Y-96625011D01*
X191000000Y-119000000D02*
X192625011Y-117374989D01*
D20*
%TO.N,+5V*%
X101000000Y-77000000D02*
X97790000Y-80210000D01*
X97790000Y-80210000D02*
X97790000Y-133858000D01*
X97790000Y-133858000D02*
X98806000Y-134874000D01*
X98806000Y-134874000D02*
X102870000Y-134874000D01*
X102870000Y-134874000D02*
X105410000Y-137414000D01*
X105410000Y-140450002D02*
X108215998Y-143256000D01*
X105410000Y-137414000D02*
X105410000Y-140450002D01*
X155744000Y-143256000D02*
X159000000Y-140000000D01*
X118000000Y-140826000D02*
X115570000Y-143256000D01*
X118000000Y-140000000D02*
X118000000Y-140826000D01*
X115570000Y-143256000D02*
X155744000Y-143256000D01*
X108215998Y-143256000D02*
X115570000Y-143256000D01*
X159000000Y-140000000D02*
X163272000Y-144272000D01*
X193040000Y-144272000D02*
X195274990Y-142037010D01*
X163272000Y-144272000D02*
X193040000Y-144272000D01*
X195274990Y-84022990D02*
X193802000Y-82550000D01*
X195274990Y-142037010D02*
X195274990Y-84022990D01*
X193294000Y-68914000D02*
X191000000Y-66620000D01*
X193294000Y-73152000D02*
X193294000Y-68914000D01*
D19*
X189824999Y-78340003D02*
X189824999Y-67795001D01*
X189824999Y-67795001D02*
X191000000Y-66620000D01*
X177040001Y-91125001D02*
X189824999Y-78340003D01*
X174125001Y-91125001D02*
X177040001Y-91125001D01*
X173000000Y-90000000D02*
X174125001Y-91125001D01*
X191000000Y-107000000D02*
X187518000Y-107000000D01*
X177040001Y-96522001D02*
X177040001Y-91125001D01*
X187518000Y-107000000D02*
X177040001Y-96522001D01*
X107000000Y-83000000D02*
X101000000Y-77000000D01*
X112000000Y-83000000D02*
X107000000Y-83000000D01*
%TO.N,/UART2_RX*%
X171110000Y-117180000D02*
X171196000Y-117094000D01*
X157700000Y-117180000D02*
X171110000Y-117180000D01*
%TO.N,/UART2_TX*%
X171191347Y-116073347D02*
X161802653Y-116073347D01*
X161802653Y-116073347D02*
X161798000Y-116078000D01*
X159133347Y-116073347D02*
X157700000Y-114640000D01*
X161802653Y-116073347D02*
X159133347Y-116073347D01*
%TO.N,/ROTARY_CLK_PUMP_RELAIS*%
X116020000Y-104480000D02*
X132300000Y-104480000D01*
X101000000Y-89460000D02*
X116020000Y-104480000D01*
%TO.N,/ROTARY_DT_LED_BLUE*%
X99824999Y-97744999D02*
X101000000Y-98920000D01*
X99824999Y-88095001D02*
X99824999Y-97744999D01*
X101000000Y-86920000D02*
X99824999Y-88095001D01*
X111640000Y-109560000D02*
X132300000Y-109560000D01*
X101000000Y-98920000D02*
X111640000Y-109560000D01*
%TO.N,/LED_GREEN*%
X134795001Y-110665001D02*
X136652000Y-112522000D01*
X110205001Y-110665001D02*
X134795001Y-110665001D01*
X101000000Y-101460000D02*
X110205001Y-110665001D01*
%TO.N,/LED_RED_BLANK2*%
X111679590Y-112776000D02*
X129032000Y-112776000D01*
X102903590Y-104000000D02*
X111679590Y-112776000D01*
X101000000Y-104000000D02*
X102903590Y-104000000D01*
%TO.N,/TLC_CLK*%
X101000000Y-111160000D02*
X108112000Y-111160000D01*
X111592000Y-114640000D02*
X132300000Y-114640000D01*
X108112000Y-111160000D02*
X111592000Y-114640000D01*
%TO.N,/TLC_DATA*%
X133405001Y-113205001D02*
X132300000Y-112100000D01*
X133405001Y-115170401D02*
X133405001Y-113205001D01*
X132830401Y-115745001D02*
X133405001Y-115170401D01*
X103045001Y-115745001D02*
X132830401Y-115745001D01*
X101000000Y-113700000D02*
X103045001Y-115745001D01*
%TO.N,/PHOTO_IN*%
X134366000Y-116749402D02*
X134366000Y-112268000D01*
X132830401Y-118285001D02*
X134366000Y-116749402D01*
X103045001Y-118285001D02*
X132830401Y-118285001D01*
X101000000Y-116240000D02*
X103045001Y-118285001D01*
%TO.N,/SPI_DC*%
X141025001Y-110994999D02*
X132300000Y-119720000D01*
X157900403Y-110994999D02*
X141025001Y-110994999D01*
X169300000Y-99595402D02*
X157900403Y-110994999D01*
X169300000Y-50000000D02*
X169300000Y-99595402D01*
X131360000Y-118780000D02*
X132300000Y-119720000D01*
X101000000Y-118780000D02*
X131360000Y-118780000D01*
%TO.N,/SPI_CLK*%
X117880000Y-71900000D02*
X117880000Y-69826000D01*
X117880000Y-69826000D02*
X118872000Y-68834000D01*
X118872000Y-68834000D02*
X143510000Y-68834000D01*
X144980000Y-70304000D02*
X144980000Y-71900000D01*
X143510000Y-68834000D02*
X144980000Y-70304000D01*
X151130000Y-102990000D02*
X157700000Y-109560000D01*
X151130000Y-81788000D02*
X151130000Y-102990000D01*
X163655999Y-48824999D02*
X147066000Y-65414998D01*
X170664999Y-48824999D02*
X163655999Y-48824999D01*
X171840000Y-50000000D02*
X170664999Y-48824999D01*
X147066000Y-69814000D02*
X144980000Y-71900000D01*
X147066000Y-65414998D02*
X147066000Y-69814000D01*
X146307001Y-121154999D02*
X154940000Y-112522000D01*
X101165001Y-121154999D02*
X146307001Y-121154999D01*
X101000000Y-121320000D02*
X101165001Y-121154999D01*
%TO.N,/SPI_MOSI*%
X150060000Y-72444000D02*
X150060000Y-71900000D01*
X125476000Y-74422000D02*
X125984000Y-74930000D01*
X147574000Y-74930000D02*
X148971000Y-73533000D01*
X125984000Y-74930000D02*
X147574000Y-74930000D01*
X148971000Y-73533000D02*
X150060000Y-72444000D01*
X148590000Y-73914000D02*
X148971000Y-73533000D01*
X153188001Y-70674999D02*
X153825001Y-71311999D01*
X153825001Y-71311999D02*
X153825001Y-88039001D01*
X152011999Y-70674999D02*
X153188001Y-70674999D01*
X150786998Y-71900000D02*
X152011999Y-70674999D01*
X150060000Y-71900000D02*
X150786998Y-71900000D01*
X157566000Y-91780000D02*
X157700000Y-91780000D01*
X153825001Y-88039001D02*
X157566000Y-91780000D01*
X174380000Y-53204000D02*
X170434000Y-57150000D01*
X174380000Y-50000000D02*
X174380000Y-53204000D01*
X168656000Y-102779402D02*
X168656000Y-101854000D01*
X101000000Y-123860000D02*
X101165001Y-123694999D01*
X158230401Y-113205001D02*
X168656000Y-102779402D01*
X157169599Y-113205001D02*
X158230401Y-113205001D01*
X146679601Y-123694999D02*
X157169599Y-113205001D01*
X101165001Y-123694999D02*
X146679601Y-123694999D01*
%TO.N,/SPI_CS_OLED*%
X130700000Y-126400000D02*
X132300000Y-124800000D01*
X101000000Y-126400000D02*
X130700000Y-126400000D01*
%TO.N,/SPI_RES*%
X132099597Y-128445001D02*
X154054999Y-128445001D01*
X154054999Y-128445001D02*
X157700000Y-124800000D01*
X131604598Y-128940000D02*
X132099597Y-128445001D01*
X101000000Y-128940000D02*
X131604598Y-128940000D01*
%TO.N,/SCALE_DT_ANALOG_T1*%
X135382000Y-103938000D02*
X132300000Y-107020000D01*
X135382000Y-78232000D02*
X135382000Y-103938000D01*
X182626000Y-89166000D02*
X182626000Y-87630000D01*
X191000000Y-97540000D02*
X182626000Y-89166000D01*
X173228000Y-75946000D02*
X170688000Y-75946000D01*
X180594000Y-83312000D02*
X173228000Y-75946000D01*
X137668000Y-75946000D02*
X135382000Y-78232000D01*
X150622000Y-75946000D02*
X137668000Y-75946000D01*
%TO.N,/ROTARY_SW_ANALOG_T2*%
X116020000Y-99400000D02*
X132300000Y-99400000D01*
X101000000Y-84380000D02*
X116020000Y-99400000D01*
X169699001Y-104874999D02*
X166370000Y-108204000D01*
X180050999Y-104874999D02*
X169699001Y-104874999D01*
X183351001Y-108175001D02*
X180050999Y-104874999D01*
X192110001Y-108175001D02*
X183351001Y-108175001D01*
X192175001Y-108110001D02*
X192110001Y-108175001D01*
X192175001Y-101255001D02*
X192175001Y-108110001D01*
X191000000Y-100080000D02*
X192175001Y-101255001D01*
X134366000Y-97334000D02*
X132300000Y-99400000D01*
X134366000Y-95250000D02*
X134366000Y-97334000D01*
%TO.N,/SPI_MISO*%
X122470000Y-69850000D02*
X143256000Y-69850000D01*
X120420000Y-71900000D02*
X122470000Y-69850000D01*
X147520000Y-73206000D02*
X146558000Y-74168000D01*
X147520000Y-71900000D02*
X147520000Y-73206000D01*
X159512000Y-84836000D02*
X160782000Y-86106000D01*
X160782000Y-103938000D02*
X157700000Y-107020000D01*
X160782000Y-86106000D02*
X160782000Y-103938000D01*
X166760000Y-52660000D02*
X147520000Y-71900000D01*
X166760000Y-50000000D02*
X166760000Y-52660000D01*
%TO.N,/SPI_CS_SD_BLANK1*%
X172190001Y-115802001D02*
X169926000Y-113538000D01*
X172190001Y-139150001D02*
X172190001Y-115802001D01*
X173040000Y-140000000D02*
X172190001Y-139150001D01*
D20*
%TO.N,/V_IN*%
X137340000Y-140000000D02*
X132300000Y-134960000D01*
X156460000Y-140000000D02*
X137340000Y-140000000D01*
D19*
%TO.N,/SPI_CS_TEMP2*%
X152600000Y-89220000D02*
X157700000Y-94320000D01*
X152600000Y-71900000D02*
X152600000Y-89220000D01*
%TO.N,Net-(H_LED_3V3-Pad1)*%
X123685001Y-133525001D02*
X153083001Y-133525001D01*
X122160000Y-132000000D02*
X123685001Y-133525001D01*
X153083001Y-133525001D02*
X156972000Y-137414000D01*
X160874000Y-137414000D02*
X163460000Y-140000000D01*
X156972000Y-137414000D02*
X160874000Y-137414000D01*
%TO.N,Net-(H_LED_5V1-Pad1)*%
X101000000Y-70000000D02*
X111518000Y-80518000D01*
X119678000Y-80518000D02*
X122160000Y-83000000D01*
X111518000Y-80518000D02*
X119678000Y-80518000D01*
%TD*%
M02*
